<svg viewBox="0 0 781 568" fill="none" xmlns="http://www.w3.org/2000/svg">
<rect width="568" height="568" fill="#1F1E1E"/>
<path d="M154.424 279.9H102.91V193.321H102.783V193.194H84.6761V282.068H154.424V279.9Z" fill="white"/>
<path d="M169.749 282.068H239.752V279.9H187.856V236.802H228.404V234.507H187.856V195.361H239.752V193.194H169.749V282.068Z" fill="white"/>
<path d="M273.178 282.068V195.361C284.271 195.361 318.444 199.569 320.994 249.043V282.068H339.101V193.194H320.994V233.104C315.511 209.387 298.17 193.194 273.178 193.194H255.072V282.068H273.178Z" fill="white"/>
<path d="M376.307 282.068V195.361C387.4 195.361 421.573 199.569 424.123 249.043V282.068H442.23V193.194H424.123V233.104C418.64 209.387 401.299 193.194 376.307 193.194H358.2V282.068H376.307Z" fill="white"/>
<path d="M461.329 282.068H479.436V193.194H461.329V282.068Z" fill="white"/>
<rect x="312.98" y="355.483" width="467.537" height="162.286" fill="#BC3324"/>
<path d="M420.871 479.129H422.957L434.317 446.093H467.354L480.221 479.129H497.493L466.195 398.334H448.691L420.871 479.129ZM449.85 400.884L466.658 444.122H435.013L449.85 400.884Z" fill="white"/>
<path d="M512.528 398.334V479.129H528.988V451.193H548.578L567.473 479.013H586.252L566.314 449.454C577.906 446.44 586.715 439.253 586.715 423.141C586.715 402.971 571.994 396.595 554.838 396.595C536.755 396.595 531.538 410.158 528.988 425.227V398.334H512.528ZM533.509 415.258C536.639 403.898 544.753 399.262 551.94 398.682C569.212 397.059 569.907 408.071 569.907 423.141C569.907 447.6 556.924 449.222 545.796 449.222H528.988C528.988 449.222 528.524 433.226 533.509 415.258Z" fill="white"/>
<path d="M626.282 400.305L626.398 479.129H642.859V400.305H676.127V398.334H593.014V400.305H626.282Z" fill="white"/>
</svg>
